<svg width="140" height="36" viewBox="0 0 140 36" fill="none" xmlns="http://www.w3.org/2000/svg">
<path d="M12.361 26.352H23.406V35H0.94V26.822L11.045 17.14H1.081V8.492H22.936V16.67L12.361 26.352ZM69.0555 13.38C70.1208 11.8447 71.4212 10.6227 72.9565 9.714C74.4918 8.774 76.0898 8.304 77.7505 8.304V19.443H74.7895C72.8155 19.443 71.3585 19.7877 70.4185 20.477C69.5098 21.1663 69.0555 22.3883 69.0555 24.143V35H58.6215V8.492H69.0555V13.38ZM111.096 21.746C111.096 18.9573 111.566 16.5447 112.506 14.508C113.478 12.44 114.794 10.8733 116.454 9.808C118.115 8.71133 119.979 8.163 122.047 8.163C123.771 8.163 125.243 8.52333 126.465 9.244C127.719 9.93333 128.674 10.889 129.332 12.111V0.22H139.766V35H129.332V31.381C128.674 32.603 127.719 33.5743 126.465 34.295C125.243 34.9843 123.771 35.329 122.047 35.329C119.979 35.329 118.115 34.7963 116.454 33.731C114.794 32.6343 113.478 31.0677 112.506 29.031C111.566 26.963 111.096 24.5347 111.096 21.746ZM129.379 21.746C129.379 20.336 129.019 19.2393 128.298 18.456C127.578 17.6727 126.653 17.281 125.525 17.281C124.397 17.281 123.473 17.6727 122.752 18.456C122.032 19.2393 121.671 20.336 121.671 21.746C121.671 23.156 122.032 24.2527 122.752 25.036C123.473 25.8193 124.397 26.211 125.525 26.211C126.653 26.211 127.578 25.8193 128.298 25.036C129.019 24.2527 129.379 23.156 129.379 21.746Z" fill="black"/>
<path d="M25.2662 21.746C25.2662 18.9573 25.7362 16.5447 26.6762 14.508C27.6475 12.44 28.9635 10.8733 30.6242 9.808C32.2848 8.71133 34.1492 8.163 36.2172 8.163C37.9405 8.163 39.4288 8.52333 40.6822 9.244C41.9355 9.93333 42.8912 10.889 43.5492 12.111V8.492H53.9362V35H43.5492V31.381C42.8912 32.603 41.9355 33.5743 40.6822 34.295C39.4288 34.9843 37.9405 35.329 36.2172 35.329C34.1492 35.329 32.2848 34.7963 30.6242 33.731C28.9635 32.6343 27.6475 31.0677 26.6762 29.031C25.7362 26.963 25.2662 24.5347 25.2662 21.746ZM43.5492 21.746C43.5492 20.336 43.1888 19.2393 42.4682 18.456C41.7475 17.6727 40.8232 17.281 39.6952 17.281C38.5672 17.281 37.6428 17.6727 36.9222 18.456C36.2015 19.2393 35.8412 20.336 35.8412 21.746C35.8412 23.156 36.2015 24.2527 36.9222 25.036C37.6428 25.8193 38.5672 26.211 39.6952 26.211C40.8232 26.211 41.7475 25.8193 42.4682 25.036C43.1888 24.2527 43.5492 23.156 43.5492 21.746ZM79.1509 21.746C79.1509 18.9573 79.6209 16.5447 80.5609 14.508C81.5323 12.44 82.8483 10.8733 84.5089 9.808C86.1696 8.71133 88.0339 8.163 90.1019 8.163C91.8253 8.163 93.3136 8.52333 94.5669 9.244C95.8203 9.93333 96.7759 10.889 97.4339 12.111V8.492H107.821V35H97.4339V31.381C96.7759 32.603 95.8203 33.5743 94.5669 34.295C93.3136 34.9843 91.8253 35.329 90.1019 35.329C88.0339 35.329 86.1696 34.7963 84.5089 33.731C82.8483 32.6343 81.5323 31.0677 80.5609 29.031C79.6209 26.963 79.1509 24.5347 79.1509 21.746ZM97.4339 21.746C97.4339 20.336 97.0736 19.2393 96.3529 18.456C95.6323 17.6727 94.7079 17.281 93.5799 17.281C92.4519 17.281 91.5276 17.6727 90.8069 18.456C90.0863 19.2393 89.7259 20.336 89.7259 21.746C89.7259 23.156 90.0863 24.2527 90.8069 25.036C91.5276 25.8193 92.4519 26.211 93.5799 26.211C94.7079 26.211 95.6323 25.8193 96.3529 25.036C97.0736 24.2527 97.4339 23.156 97.4339 21.746Z" fill="#9F002E"/>
</svg>
